{"title":"Game.of.Thrones.S03E02.HDTV.XviD.Dublado-Coveiro.avi","uid":8353363,"size":498056324,"categoryP":"video","categoryS":"tv_shows","magnet":"?xt=urn:btih:1746582e3e3b030fe91f137134fe952302d86cb6&amp;dn=Game.of.Thrones.S03E02.HDTV.XviD.Dublado-Coveiro.avi&amp;tr=udp%3A%2F%2Ftracker.openbittorrent.com%3A80&amp;tr=udp%3A%2F%2Fopen.demonii.com%3A1337&amp;tr=udp%3A%2F%2Ftracker.coppersurfer.tk%3A6969&amp;tr=udp%3A%2F%2Fexodus.desync.com%3A6969","seeders":5,"leechers":0,"uploader":"homeropereira07","files":1,"time":1365414763,"description":"General\nComplete name                            : C:UsersHomero PereiraDownloadsDownsGame.of.Thrones.S03E02.HDTV.XviD.Dublado-Coveiro.avi\nFormat                                   : AVI\nFormat/Info                              : Audio Video Interleave\nFile size                                : 475 MiB\nDuration                                 : 58mn 34s\nOverall bit rate                         : 1 134 Kbps\n\nVideo\nID                                       : 0\nFormat                                   : MPEG-4 Visual\nFormat profile                           : Advanced Simple@L5\nFormat settings, BVOP                    : 2\nFormat settings, QPel                    : No\nFormat settings, GMC                     : No warppoints\nFormat settings, Matrix                  : Default (H.263)\nCodec ID                                 : XVID\nCodec ID/Hint                            : XviD\nDuration                                 : 58mn 34s\nBit rate                                 : 1 000 Kbps\nWidth                                    : 640 pixels\nHeight                                   : 356 pixels\nDisplay aspect ratio                     : 16:9\nFrame rate                               : 23.976 fps\nColor space                              : YUV\nChroma subsampling                       : 4:2:0\nBit depth                                : 8 bits\nScan type                                : Progressive\nCompression mode                         : Lossy\nBits/(Pixel*Frame)                       : 0.183\nStream size                              : 419 MiB (88%)\nWriting library                          : XviD 64\n\nAudio\nID                                       : 1\nFormat                                   : MPEG Audio\nFormat version                           : Version 1\nFormat profile                           : Layer 3\nMode                                     : Joint stereo\nMode extension                           : MS Stereo\nCodec ID                                 : 55\nCodec ID/Hint                            : MP3\nDuration                                 : 58mn 34s\nBit rate mode                            : Constant\nBit rate                                 : 128 Kbps\nChannel(s)                               : 2 channels\nSampling rate                            : 44.1 KHz\nCompression mode                         : Lossy\nStream size                              : 53.6 MiB (11%)\nAlignment                                : Aligned on interleaves\nInterleave, duration                     : 167 ms (4.00 video frames)\nInterleave, preload duration             : 208 ms\nTitle                                    : Portuguese _ By Coveiro\nWriting library                          : LAME3.98.2","torrent":{"xt":"urn:btih:1746582e3e3b030fe91f137134fe952302d86cb6","amp;dn":"Game.of.Thrones.S03E02.HDTV.XviD.Dublado-Coveiro.avi","amp;tr":["udp%3A%2F%2Ftracker.openbittorrent.com%3A80","udp%3A%2F%2Fopen.demonii.com%3A1337","udp%3A%2F%2Ftracker.coppersurfer.tk%3A6969","udp%3A%2F%2Fexodus.desync.com%3A6969"],"infoHash":"1746582e3e3b030fe91f137134fe952302d86cb6","infoHashBuffer":{"type":"Buffer","data":[23,70,88,46,62,59,3,15,233,31,19,113,52,254,149,35,2,216,108,182]},"announce":[],"urlList":[]}}